<?xml version="1.0" standalone="no"?><!DOCTYPE svg PUBLIC "-//W3C//DTD SVG 1.1//EN" "http://www.w3.org/Graphics/SVG/1.1/DTD/svg11.dtd"><svg t="1536403247797" class="icon" style="" viewBox="0 0 1025 1024" version="1.1" xmlns="http://www.w3.org/2000/svg" p-id="5191" xmlns:xlink="http://www.w3.org/1999/xlink" width="200.1953125" height="200"><defs><style type="text/css"></style></defs><path d="M305.899123 300.815367c-2.138753 0-4.151255 0.835001-5.663757 2.348753-1.518752 1.528752-2.353753 3.530004-2.353753 5.678757s0.835001 4.151255 2.348753 5.673757l29.598786 29.600036c3.022504 3.027504 8.30126 3.027504 11.343764 0 1.517502-1.513752 2.352503-3.530004 2.352503-5.673757 0-2.138753-0.835001-4.155005-2.352503-5.673757l-29.600036-29.600036C310.059128 301.650368 308.047876 300.815367 305.899123 300.815367L305.899123 300.815367z" p-id="5192" fill="#d81e06"></path><path d="M733.154645 300.825367c-2.148753 0-4.160005 0.835001-5.678757 2.343753l-29.600036 29.600036c-3.120004 3.130004-3.130004 8.21751 0 11.347514 3.037504 3.027504 8.31001 3.022504 11.337514 0l29.605036-29.600036c3.130004-3.130004 3.120004-8.22751-0.005-11.352514C737.3109 301.650368 735.293398 300.825367 733.154645 300.825367L733.154645 300.825367z" p-id="5193" fill="#d81e06"></path><path d="M226.519027 472.578077c-4.423755 0-8.02251 3.598754-8.02251 8.01876 0 4.418755 3.598754 8.01751 8.02251 8.01751l41.860051 0c4.418755 0 8.01751-3.598754 8.01751-8.01751 0-4.420005-3.598754-8.01876-8.01751-8.01876L226.519027 472.578077 226.519027 472.578077z" p-id="5194" fill="#d81e06"></path><path d="M770.669691 472.578077c-4.423755 0-8.01751 3.598754-8.01751 8.01876 0 4.418755 3.593754 8.01751 8.01751 8.01751l41.870051 0c4.428755 0 8.01751-3.598754 8.01751-8.01751 0-4.420005-3.588754-8.01876-8.01751-8.01876L770.669691 472.578077 770.669691 472.578077z" p-id="5195" fill="#d81e06"></path><path d="M519.526884 210.971508c-4.423755 0-8.01751 3.598754-8.01751 8.01751l0 41.861301c0 4.413755 3.593754 8.01751 8.01751 8.01751s8.01751-3.603754 8.01751-8.01751l0-41.861301C527.544394 214.570262 523.95064 210.971508 519.526884 210.971508L519.526884 210.971508z" p-id="5196" fill="#d81e06"></path><path d="M519.526884 336.547911c-96.747618 0-175.458964 78.706346-175.458964 175.455214 0 96.751368 78.711346 175.468964 175.458964 175.468964 96.743868 0 175.448964-78.712596 175.448964-175.468964C694.975848 415.254257 616.270752 336.547911 519.526884 336.547911L519.526884 336.547911z" p-id="5197" fill="#d81e06"></path><path d="M498.604359 833.863518c-4.433755 0-8.03251 3.605004-8.03251 8.01751 0 4.428755 3.598754 8.02751 8.03251 8.02751l41.850051 0c4.423755 0 8.02251-3.598754 8.02251-8.02751 0-4.412505-3.598754-8.01751-8.02251-8.01751L498.604359 833.863518 498.604359 833.863518z" p-id="5198" fill="#d81e06"></path><path d="M456.739308 756.325923c-4.420005 0-8.01751 3.602504-8.01751 8.03126 0 4.420005 3.597504 8.00876 8.01751 8.00876l125.571403 0c4.428755 0 8.01751-3.588754 8.01751-8.00876 0-4.433755-3.588754-8.03126-8.01751-8.03126L456.739308 756.325923 456.739308 756.325923z" p-id="5199" fill="#d81e06"></path><path d="M512.016875 0C229.23403 0 0 229.23403 0 512.011875c0 282.759095 229.23403 511.988125 512.016875 511.988125 282.764095 0 511.993125-229.22903 511.993125-511.988125C1024.015 229.23403 794.78097 0 512.016875 0zM485.694343 218.989017c0-18.651273 15.180019-33.832541 33.832541-33.832541s33.832541 15.181269 33.832541 33.832541l0 41.861301c0 18.656273-15.181269 33.837541-33.832541 33.837541s-33.832541-15.181269-33.832541-33.832541L485.694343 218.989017zM268.379078 514.439378l-41.860051 0c-18.657523 0-33.837541-15.181269-33.837541-33.832541 0-18.652523 15.180019-33.832541 33.837541-33.832541l41.860051 0c18.652523 0 33.833791 15.180019 33.833791 33.832541C302.212869 499.258109 287.0416 514.439378 268.379078 514.439378zM281.977844 332.764156c-6.386258-6.386258-9.912512-14.887518-9.912512-23.931279 0-9.032511 3.521254-17.528771 9.912512-23.925029 6.382508-6.387508 14.877518-9.912512 23.921279-9.912512 9.042511 0 17.533771 3.516254 23.930029 9.912512l29.600036 29.598786c6.391258 6.397508 9.912512 14.893768 9.912512 23.926279 0 9.042511-3.526254 17.533771-9.912512 23.931279-6.406258 6.391258-14.902518 9.911262-23.931279 9.911262-9.032511 0-17.528771-3.520004-23.925029-9.911262L281.977844 332.764156zM540.45441 875.723569l-41.850051 0c-18.662523 0-33.847541-15.180019-33.847541-33.842541 0-18.652523 15.185019-33.832541 33.847541-33.832541l41.850051 0c18.652523 0 33.837541 15.181269 33.837541 33.832541C574.293201 860.5448 559.106933 875.723569 540.45441 875.723569zM582.319461 798.179724 456.739308 798.179724c-18.657523 0-33.833791-15.176269-33.833791-33.823791 0-18.667523 15.176269-33.847541 33.833791-33.847541l125.571403 0c18.652523 0 33.832541 15.186269 33.832541 33.847541C616.153252 783.008456 600.971984 798.179724 582.319461 798.179724zM519.526884 713.277121c-110.976385 0-201.273996-90.29136-201.273996-201.277746 0-110.977635 90.28761-201.276496 201.273996-201.276496 110.976385 0 201.265246 90.28886 201.265246 201.276496C720.79213 622.98576 630.50327 713.277121 519.526884 713.277121zM703.550859 372.275454c-9.042511 0-17.543771-3.525004-23.931279-9.921262-13.178766-13.188766-13.178766-34.648792 0-47.837558l29.610036-29.608786c6.386258-6.387508 14.892518-9.907512 23.926279-9.907512 9.037511 0 17.533771 3.520004 23.921279 9.902512 13.188766 13.202516 13.178766 34.662542 0 47.851308l-29.600036 29.600036C721.09463 368.75545 712.59837 372.275454 703.550859 372.275454zM812.539742 514.439378l-41.870051 0c-18.652523 0-33.832541-15.181269-33.832541-33.832541 0-18.652523 15.181269-33.832541 33.832541-33.832541l41.870051 0c18.657523 0 33.832541 15.180019 33.832541 33.832541C846.373533 499.258109 831.197265 514.439378 812.539742 514.439378z" p-id="5200" fill="#d81e06"></path><path d="M512.016875 999.03622" p-id="5201" fill="#d81e06"></path></svg>